<svg xmlns="http://www.w3.org/2000/svg" viewBox="0 0 512 512" width="512" height="512">
  <rect width="512" height="512" rx="112" fill="#0a0a0a"/>
  <g fill="#FF4B00">
    <rect x="223" y="70" width="66" height="180" rx="33" transform="rotate(0 256 256)"/><rect x="223" y="70" width="66" height="180" rx="33" transform="rotate(45 256 256)"/><rect x="223" y="70" width="66" height="180" rx="33" transform="rotate(90 256 256)"/><rect x="223" y="70" width="66" height="180" rx="33" transform="rotate(135 256 256)"/><rect x="223" y="70" width="66" height="180" rx="33" transform="rotate(180 256 256)"/><rect x="223" y="70" width="66" height="180" rx="33" transform="rotate(225 256 256)"/><rect x="223" y="70" width="66" height="180" rx="33" transform="rotate(270 256 256)"/><rect x="223" y="70" width="66" height="180" rx="33" transform="rotate(315 256 256)"/>
    <circle cx="256" cy="256" r="40"/>
  </g>
</svg>